<svg xmlns="http://www.w3.org/2000/svg" viewBox="-13.5 -13.5 78.5 93" width="78.5" height="93" fill="#BFFF00"><circle cx="-8.0" cy="-8.0" r="5.2"/><circle cx="5.5" cy="-8.0" r="5.2"/><circle cx="19.0" cy="-8.0" r="5.2"/><circle cx="32.5" cy="-8.0" r="5.2"/><circle cx="46.0" cy="-8.0" r="5.2"/><circle cx="59.5" cy="-8.0" r="5.2"/><circle cx="-8.0" cy="5.5" r="5.2"/><circle cx="5.5" cy="5.5" r="5.2"/><circle cx="19.0" cy="5.5" r="5.2"/><circle cx="32.5" cy="5.5" r="5.2"/><circle cx="46.0" cy="5.5" r="5.2"/><circle cx="59.5" cy="5.5" r="5.2"/><circle cx="-8.0" cy="19.0" r="5.2"/><circle cx="5.5" cy="19.0" r="5.2"/><circle cx="19.0" cy="19.0" r="5.2"/><circle cx="32.5" cy="19.0" r="5.2"/><circle cx="46.0" cy="19.0" r="5.2"/><circle cx="59.5" cy="19.0" r="5.2"/><circle cx="-8.0" cy="32.5" r="5.2"/><circle cx="59.5" cy="32.5" r="5.2"/><circle cx="-8.0" cy="46.0" r="5.2"/><circle cx="5.5" cy="46.0" r="5.2"/><circle cx="19.0" cy="46.0" r="5.2"/><circle cx="32.5" cy="46.0" r="5.2"/><circle cx="46.0" cy="46.0" r="5.2"/><circle cx="59.5" cy="46.0" r="5.2"/><circle cx="-8.0" cy="59.5" r="5.2"/><circle cx="5.5" cy="59.5" r="5.2"/><circle cx="19.0" cy="59.5" r="5.2"/><circle cx="32.5" cy="59.5" r="5.2"/><circle cx="46.0" cy="59.5" r="5.2"/><circle cx="59.5" cy="59.5" r="5.2"/><circle cx="-8.0" cy="73.0" r="5.2"/><circle cx="5.5" cy="73.0" r="5.2"/><circle cx="19.0" cy="73.0" r="5.2"/><circle cx="32.5" cy="73.0" r="5.2"/><circle cx="46.0" cy="73.0" r="5.2"/><circle cx="59.5" cy="73.0" r="5.2"/></svg>
